<svg aria-hidden="true" style="position: absolute; width: 0; height: 0; overflow: hidden;" version="1.1"
  xmlns="http://www.w3.org/2000/svg" xmlns:xlink="http://www.w3.org/1999/xlink">
  <defs>
    <symbol id="icon-body-sculpt" viewBox="0 0 37 32">
      <path fill="#fff" style="fill: var(--color1, #fff)"
        d="M30.568 26.587c0.003-0.003 0.003-0.008 0.005-0.011 0.005-0.008 0.009-0.017 0.011-0.026 0.003-0.008 0.005-0.018 0.008-0.026s0.003-0.017 0.003-0.026c0-0.005 0.003-0.008 0.003-0.013s-0.003-0.008-0.003-0.013c0-0.005-0.003-0.018-0.003-0.026s-0.005-0.018-0.008-0.026c-0.003-0.009-0.006-0.018-0.011-0.026-0.003-0.003-0.003-0.008-0.005-0.011l-2.942-5.095h5.881c0.032-0.001 0.063-0.009 0.092-0.024 0.008-0.005 0.013-0.011 0.021-0.016 0.021-0.013 0.039-0.031 0.052-0.052 0.003-0.005 0.008-0.008 0.013-0.013l2.979-5.158c0.003-0.003 0.003-0.008 0.005-0.011 0.005-0.008 0.008-0.017 0.011-0.026 0.003-0.008 0.005-0.018 0.008-0.026s0.003-0.017 0.003-0.026c0-0.005 0.003-0.008 0.003-0.013s-0.003-0.008-0.003-0.013c0-0.005-0.003-0.018-0.003-0.026s-0.005-0.018-0.008-0.026c-0.003-0.009-0.006-0.018-0.011-0.026-0.003-0.003-0.003-0.008-0.005-0.011l-2.979-5.158c-0.005-0.007-0.010-0.013-0.016-0.018-0.008-0.012-0.018-0.022-0.029-0.031s-0.022-0.016-0.034-0.024c-0.011-0.007-0.022-0.012-0.034-0.016-0.013-0.005-0.028-0.008-0.042-0.008-0.008 0-0.016-0.005-0.024-0.005h-5.881l2.942-5.095c0.003-0.003 0.003-0.008 0.005-0.011 0.005-0.008 0.009-0.017 0.011-0.026 0.003-0.008 0.005-0.018 0.008-0.026s0.003-0.017 0.003-0.026c0-0.005 0.003-0.008 0.003-0.013s-0.003-0.008-0.003-0.013c0-0.005-0.003-0.018-0.003-0.026s-0.005-0.018-0.008-0.026c-0.003-0.009-0.006-0.018-0.011-0.026-0.003-0.003-0.003-0.008-0.005-0.010l-2.976-5.158c-0.004-0.007-0.010-0.013-0.016-0.018-0.008-0.011-0.017-0.022-0.026-0.031-0.011-0.008-0.022-0.016-0.034-0.024-0.011-0.007-0.022-0.012-0.034-0.016-0.013-0.005-0.028-0.008-0.042-0.008-0.008 0-0.016-0.005-0.024-0.005h-5.955c-0.005 0-0.008 0.003-0.013 0.003s-0.018 0.003-0.026 0.003l-0.029 0.008c-0.008 0.002-0.016 0.006-0.024 0.011-0.003 0.002-0.007 0.003-0.010 0.003l-0.008 0.008c-0.007 0.005-0.014 0.010-0.021 0.016-0.008 0.006-0.015 0.013-0.021 0.021-0.005 0.008-0.010 0.013-0.016 0.021-0.003 0.003-0.006 0.007-0.008 0.010l-2.942 5.095-2.942-5.095c-0.005-0.007-0.010-0.013-0.016-0.018-0.009-0.011-0.019-0.022-0.029-0.031-0.010-0.008-0.020-0.015-0.031-0.021s-0.022-0.012-0.034-0.016c-0.013-0.005-0.028-0.008-0.042-0.008-0.008 0-0.016-0.005-0.024-0.005h-5.955c-0.005 0-0.008 0.003-0.013 0.003s-0.018 0.003-0.026 0.003l-0.029 0.008c-0.008 0.002-0.016 0.006-0.024 0.010-0.003 0.002-0.007 0.003-0.010 0.003-0.003 0.003-0.007 0.006-0.011 0.008-0.007 0.005-0.014 0.010-0.021 0.016-0.008 0.006-0.015 0.013-0.021 0.021-0.005 0.008-0.011 0.013-0.016 0.021-0.003 0.003-0.006 0.007-0.008 0.010l-2.976 5.158c-0.004 0.007-0.006 0.015-0.008 0.024-0.006 0.013-0.010 0.026-0.013 0.039-0.003 0.026-0.003 0.053 0 0.079 0.003 0.013 0.008 0.027 0.013 0.039 0.001 0.008 0.004 0.016 0.008 0.024l2.942 5.095h-5.881c-0.005 0-0.008 0.003-0.013 0.003s-0.018 0.003-0.026 0.003l-0.029 0.008c-0.008 0.002-0.016 0.006-0.024 0.011-0.003 0.003-0.008 0.003-0.010 0.005l-0.008 0.008c-0.007 0.005-0.014 0.010-0.021 0.016-0.008 0.006-0.015 0.013-0.021 0.021-0.005 0.008-0.010 0.013-0.016 0.021-0.003 0.003-0.006 0.007-0.008 0.011l-2.979 5.158c-0.004 0.007-0.006 0.015-0.008 0.024-0.006 0.013-0.010 0.026-0.013 0.039-0.004 0.026-0.004 0.053 0 0.079 0.003 0.013 0.008 0.027 0.013 0.039 0.001 0.008 0.004 0.016 0.008 0.024l2.979 5.158 0.008 0.008c0.005 0.008 0.011 0.016 0.018 0.024 0.010 0.010 0.021 0.018 0.031 0.029 0.008 0.005 0.011 0.013 0.018 0.016 0.003 0.002 0.007 0.003 0.010 0.003 0.028 0.015 0.060 0.023 0.092 0.024h5.881l-2.939 5.095c-0.004 0.008-0.006 0.015-0.008 0.024-0.006 0.013-0.010 0.026-0.013 0.039-0.003 0.026-0.003 0.053 0 0.079 0.003 0.013 0.008 0.027 0.013 0.039 0.001 0.008 0.004 0.016 0.008 0.024l2.976 5.158 0.008 0.008c0.005 0.008 0.011 0.016 0.018 0.024 0.011 0.011 0.021 0.018 0.031 0.029 0.008 0.005 0.011 0.013 0.018 0.016 0.003 0.002 0.007 0.003 0.010 0.003 0.028 0.014 0.060 0.023 0.092 0.024h5.955c0.032-0.001 0.063-0.009 0.092-0.024 0.008-0.005 0.013-0.011 0.021-0.016 0.021-0.013 0.039-0.031 0.052-0.052 0.003-0.005 0.008-0.008 0.013-0.013l2.942-5.095 2.942 5.095 0.008 0.008c0.005 0.008 0.011 0.016 0.018 0.024 0.011 0.011 0.021 0.018 0.031 0.029 0.008 0.005 0.011 0.013 0.018 0.016 0.003 0.002 0.007 0.003 0.011 0.003 0.028 0.014 0.060 0.023 0.092 0.024h5.955c0.032-0.001 0.063-0.009 0.092-0.024 0.008-0.005 0.013-0.011 0.021-0.016 0.021-0.013 0.039-0.031 0.052-0.052 0.003-0.005 0.008-0.008 0.013-0.013l2.963-5.155zM27.293 31.436h-5.48l2.74-4.746h5.48l-2.74 4.746zM15.1 31.436h-5.48l5.86-10.148h5.48l-5.86 10.148zM3.524 20.873l2.74-4.746h11.718l-2.74 4.746h-11.718zM3.167 11.176l2.74 4.746-2.74 4.746-2.74-4.746 2.74-4.746zM6.524 5.36l2.74-4.746 5.86 10.148-2.74 4.746-5.86-10.148zM21.459 0.616l2.74 4.746-5.858 10.148-2.74-4.746 5.858-10.148zM27.293 0.409l2.74 4.746h-5.48l-2.74-4.746h5.48zM33.391 10.972l2.74 4.746h-11.718l-2.74-4.746h11.718zM21.314 11.176l2.619 4.539h-5.241l2.622-4.539zM17.982 15.715h-5.241l2.619-4.539 2.622 4.539zM18.338 16.334l2.619 4.539h-5.241l2.622-4.539zM18.695 16.13h5.477l5.858 10.148h-5.48l-5.855-10.148zM24.65 16.13h11.479l-2.74 4.746h-6.002l-2.737-4.746zM21.674 10.557l2.882-4.99h5.48l-2.882 4.99h-5.48zM15.36 10.353l-5.74-9.944h5.48l3.002 5.197-2.743 4.746zM12.025 15.715h-5.763l-2.74-4.746h5.763l2.74 4.746zM15.003 21.288l-5.74 9.944-2.74-4.746 3-5.197h5.48zM21.314 21.492l2.882 4.99-2.74 4.746-2.882-4.993 2.74-4.744z">
      </path>
    </symbol>
    <symbol id="icon-balance-fitness" viewBox="0 0 31 32">
      <path fill="none" stroke="#fff" style="stroke: var(--color1, #fff)" stroke-linejoin="round" stroke-linecap="round"
        stroke-miterlimit="10" stroke-width="0.4507"
        d="M31.038 11.227c-1.036-3.272-3.109-6.116-5.907-8.104s-6.167-3.009-9.597-2.909-6.734 1.314-9.412 3.459c-2.678 2.146-4.584 5.106-5.428 8.432s-0.583 6.837 0.747 10c1.329 3.163 3.654 5.808 6.621 7.532s6.415 2.434 9.822 2.023c3.407-0.411 6.587-1.922 9.058-4.303h0.007l0.128-0.128c0.62-0.623 0.967-1.466 0.966-2.344s-0.35-1.721-0.971-2.342c-0.621-0.621-1.464-0.971-2.342-0.972s-1.722 0.347-2.344 0.966v-0.002c-1.27 1.243-2.875 2.089-4.618 2.434s-3.549 0.174-5.197-0.491c-1.648-0.665-3.066-1.796-4.080-3.255s-1.582-3.182-1.633-4.958 0.417-3.529 1.347-5.043c0.93-1.514 2.281-2.725 3.888-3.483s3.4-1.032 5.16-0.787c1.76 0.245 3.41 0.998 4.749 2.166l0.444 0.446c0.208 0.21 0.323 0.494 0.322 0.789s-0.119 0.578-0.328 0.787c-0.209 0.209-0.492 0.327-0.787 0.328s-0.579-0.115-0.789-0.322l-0.615-0.617-0.023 0.023c-0.010-0.027-0.026-0.052-0.047-0.072-1.045-0.791-2.292-1.27-3.598-1.38s-2.616 0.151-3.778 0.755c-1.163 0.604-2.13 1.526-2.79 2.657s-0.986 2.428-0.939 3.737c0.047 1.309 0.464 2.579 1.203 3.661s1.77 1.932 2.973 2.452c1.203 0.52 2.528 0.688 3.823 0.484s2.505-0.77 3.49-1.633c0.186-0.207 0.287-0.476 0.286-0.754s-0.107-0.546-0.295-0.751c-0.444-0.48-1.203-0.354-1.58-0.045-0.686 0.558-1.515 0.912-2.393 1.021s-1.768-0.031-2.57-0.404c-0.802-0.373-1.483-0.964-1.964-1.706s-0.745-1.604-0.76-2.488c-0.015-0.884 0.219-1.755 0.675-2.512s1.117-1.372 1.905-1.772c0.789-0.4 1.674-0.57 2.555-0.491s1.722 0.404 2.426 0.939l0.007-0.005 0.399 0.399c0.623 0.62 1.466 0.967 2.344 0.966s1.721-0.35 2.342-0.972c0.621-0.621 0.971-1.464 0.972-2.342s-0.347-1.722-0.966-2.344l-0.050-0.050c-0.008-0.035-0.025-0.068-0.050-0.095-1.614-1.545-3.648-2.579-5.848-2.972s-4.466-0.129-6.515 0.76c-2.050 0.889-3.792 2.363-5.007 4.237s-1.851 4.066-1.826 6.3c0.025 2.234 0.708 4.411 1.964 6.259s3.030 3.283 5.099 4.127 4.341 1.058 6.531 0.616c2.19-0.442 4.201-1.52 5.781-3.1 0.003-0.008 0.007-0.015 0.011-0.023 0.203-0.19 0.471-0.297 0.749-0.301s0.548 0.098 0.756 0.284c0.208 0.186 0.338 0.442 0.366 0.719s-0.049 0.555-0.215 0.778c-2.058 2.102-4.743 3.477-7.651 3.919s-5.881-0.074-8.47-1.47c-2.589-1.396-4.654-3.596-5.883-6.269s-1.555-5.672-0.93-8.546 2.168-5.467 4.397-7.387c2.228-1.92 5.020-3.064 7.955-3.258s5.854 0.572 8.315 2.182c2.462 1.61 4.333 3.977 5.332 6.744 0.165 0.457 0.55 1.124 1.336 1.075 0.152-0 0.302-0.036 0.438-0.103s0.255-0.166 0.346-0.288c0.092-0.121 0.154-0.262 0.182-0.412s0.021-0.303-0.020-0.45z">
      </path>
    </symbol>
    <symbol id="icon-forza" viewBox="0 0 36 32">
      <path fill="#fff" style="fill: var(--color1, #fff)"
        d="M29.083 0l-6.648 3.809 0.013 9.915-9.253-10.045-6.782-3.677-6.414 3.626v20.62l6.482 3.618 6.652-3.682v-1.691l9.034 9.471 13.379-7.724v-20.613l-6.465-3.628zM23.058 4.52l6.264 3.593v13.071l-6.254-6.787-0.010-9.877zM0.622 4.342l5.677 3.278 15.649 16.814 0.005 6.399-15.76-16.525v12.683l-5.571-3.105v-19.544zM12.513 21.897v1.925l-5.728 3.169v-11.144l5.764 6.051h-0.036zM34.956 23.888l-12.386 7.148-0.005-6.843-15.877-17.058-5.754-3.321 5.49-3.105 6.394 3.466 17.126 18.589v-15.009l-6.574-3.768 5.731-3.281 5.855 3.281v19.902z">
      </path>
    </symbol>
    <symbol id="icon-fit-and-tone" viewBox="0 0 28 32">
      <path fill="#fff" style="fill: var(--color1, #fff)"
        d="M27.707 7.999l-4.731-2.731-4.39 2.534v-5.071l-4.733-2.731-4.731 2.731v5.069l-4.39-2.534-4.733 2.733v5.464l4.39 2.534-4.39 2.534v5.464l4.731 2.731 4.39-2.534v5.069l4.731 2.731 4.731-2.731v-5.069l4.39 2.534 4.735-2.731v-5.464l-4.39-2.534 4.39-2.534v-5.464zM22.976 5.661l4.221 2.436-8.584 4.971-0.027-4.872 4.39-2.534zM18.246 8.392l0.027 4.875-4.248 2.461v-10.165l4.221-2.436v5.265zM9.463 3.126l4.219 2.436v10.165l-4.219-2.443v-10.158zM4.731 5.661l4.39 2.534v4.888l-8.609-4.987 4.219-2.436zM0.341 13.266v-4.872l8.611 4.987-4.219 2.42-4.392-2.534zM0.341 23.8v-4.872l4.219 2.436v4.872l-4.219-2.436zM0.512 18.63l4.306-2.484 4.477-2.569 4.219 2.443-8.78 5.046-4.221-2.436zM13.682 31.501l-4.219-2.436v-5.069l4.219-2.436v9.941zM9.463 23.603l-0.256 0.149-4.306 2.486v-4.872l8.78-5.046v4.847l-4.219 2.436zM13.854 5.268l-4.219-2.436 4.219-2.436 4.219 2.436-4.219 2.436zM18.244 29.065l-4.219 2.436v-9.941l4.219 2.436v5.069zM22.805 26.236l-8.78-5.071v-4.847l8.78 5.046v4.872zM27.367 23.8l-4.219 2.436v-4.914l4.219-2.397v4.875zM27.193 18.63l-4.253 2.418-8.746-5.026 4.248-2.461 4.447 2.585 4.303 2.484zM27.367 13.266l-4.39 2.534-4.191-2.436 8.584-4.971v4.872h-0.002z">
      </path>
    </symbol>
    <symbol id="icon-aron-gym" viewBox="0 0 37 32">
      <path fill="#fff" style="fill: var(--color1, #fff)"
        d="M0.005 28.377c0.003 0.014 0.008 0.027 0.013 0.039 0.001 0.008 0.004 0.016 0.008 0.024l1.909 3.31 0.008 0.008c0.005 0.008 0.011 0.016 0.018 0.024 0.010 0.011 0.021 0.018 0.031 0.029 0.008 0.005 0.010 0.013 0.018 0.016 0.003 0.002 0.007 0.003 0.010 0.003 0.028 0.014 0.060 0.023 0.092 0.024h32.481c0.032-0.001 0.063-0.009 0.092-0.024 0.008-0.005 0.013-0.011 0.021-0.016 0.021-0.013 0.039-0.031 0.052-0.052 0.003-0.005 0.008-0.008 0.013-0.013l1.912-3.31c0.003-0.003 0.003-0.008 0.005-0.011 0.005-0.008 0.009-0.017 0.011-0.026 0.003-0.008 0.005-0.018 0.008-0.026s0.003-0.017 0.003-0.026c0-0.005 0.003-0.008 0.003-0.013s-0.003-0.008-0.003-0.013c0-0.005-0.003-0.018-0.003-0.026s-0.005-0.018-0.008-0.026c-0.003-0.009-0.006-0.018-0.011-0.026-0.003-0.003-0.003-0.008-0.005-0.011l-16.239-28.131c-0.005-0.007-0.010-0.013-0.016-0.018-0.008-0.012-0.018-0.022-0.029-0.031-0.021-0.015-0.043-0.028-0.066-0.039-0.014-0.004-0.028-0.007-0.042-0.008-0.008 0-0.016-0.005-0.026-0.005h-3.82c-0.005 0-0.008 0.003-0.013 0.003s-0.018 0.003-0.026 0.003l-0.029 0.008c-0.009 0.003-0.018 0.006-0.026 0.011-0.003 0.002-0.007 0.003-0.011 0.003-0.003 0.003-0.007 0.006-0.011 0.008-0.007 0.005-0.014 0.010-0.021 0.016-0.008 0.006-0.015 0.013-0.021 0.021-0.005 0.008-0.010 0.013-0.016 0.021-0.003 0.003-0.006 0.007-0.008 0.010l-16.242 28.134c-0.004 0.007-0.006 0.015-0.008 0.024-0.006 0.013-0.010 0.026-0.013 0.039s-0.003 0.026-0.003 0.039c0.003 0.013 0.003 0.026 0.005 0.039zM20.149 0.412l16.003 27.719h-27.947l1.673-2.895h20.901c0.033-0 0.064-0.009 0.092-0.026 0.003-0.003 0.008 0 0.011-0.003 0.007-0.005 0.013-0.010 0.018-0.016 0.011-0.009 0.022-0.019 0.031-0.029 0.008-0.010 0.015-0.020 0.021-0.031 0.008-0.010 0.013-0.022 0.016-0.034 0.006-0.013 0.008-0.028 0.008-0.042 0-0.008 0.005-0.016 0.005-0.026 0-0.005-0.003-0.008-0.003-0.013-0.001-0.013-0.004-0.026-0.008-0.039s-0.008-0.027-0.013-0.039c-0.003-0.003-0.003-0.008-0.005-0.011l-14.152-24.514h3.349zM34.479 31.44h-32.006l13.974-24.205 1.673 2.895-10.452 18.103c-0.002 0.003-0.003 0.007-0.003 0.011-0.006 0.013-0.010 0.026-0.013 0.039-0.004 0.013-0.006 0.026-0.008 0.039 0 0.005-0.003 0.008-0.003 0.013s0.005 0.016 0.005 0.026c0.001 0.014 0.004 0.028 0.008 0.042 0.005 0.013 0.011 0.024 0.016 0.034 0.006 0.011 0.013 0.021 0.021 0.031 0.011 0.011 0.021 0.018 0.031 0.029 0.008 0.005 0.011 0.013 0.018 0.016 0.003 0.003 0.008 0 0.010 0.003 0.028 0.015 0.060 0.024 0.092 0.026h28.304l-1.668 2.898zM26.599 24.824h-16.486l8.244-14.279 8.241 14.279zM16.446 0.619l13.974 24.205h-3.343l-10.449-18.103c-0.003-0.003-0.006-0.007-0.008-0.011-0.008-0.011-0.018-0.021-0.026-0.031-0.009-0.010-0.020-0.019-0.031-0.026-0.003-0.003-0.007-0.006-0.011-0.008-0.007-0.004-0.015-0.006-0.024-0.008-0.013-0.006-0.026-0.010-0.039-0.013-0.026-0.003-0.053-0.003-0.079 0-0.013 0.003-0.027 0.008-0.039 0.013-0.008 0.001-0.016 0.004-0.024 0.008-0.003 0.003-0.007 0.006-0.011 0.008-0.011 0.008-0.021 0.018-0.031 0.026s-0.020 0.019-0.026 0.031c-0.003 0.003-0.006 0.007-0.008 0.011l-14.152 24.514-1.673-2.895 16.001-27.722z">
      </path>
    </symbol>
    <symbol id="icon-maxpump" viewBox="0 0 34 32">
      <path fill="#fff" style="fill: var(--color1, #fff)"
        d="M0.002 22.81c0.002 0.013 0.006 0.025 0.011 0.037 0.002 0.007 0.005 0.016 0.007 0.023l2.608 4.516 0.007 0.007c0.005 0.007 0.009 0.014 0.016 0.023 0.009 0.010 0.019 0.018 0.030 0.025 0.007 0.005 0.011 0.011 0.018 0.016 0.003 0.002 0.006 0.003 0.009 0.002 0.026 0.015 0.055 0.022 0.085 0.023h10.316l2.553 4.42 0.007 0.007c0.005 0.007 0.009 0.014 0.016 0.023 0.009 0.009 0.019 0.018 0.030 0.025 0.007 0.005 0.011 0.011 0.018 0.016 0.003 0.002 0.006 0.003 0.009 0.002 0.026 0.015 0.055 0.022 0.085 0.023h15.643c0.030-0 0.060-0.008 0.087-0.023l0.021-0.014c0.019-0.013 0.036-0.029 0.050-0.048 0.002-0.005 0.009-0.007 0.011-0.011l2.608-4.516c0.002-0.005 0.002-0.007 0.005-0.011 0.004-0.007 0.007-0.015 0.009-0.023 0.002-0.009 0.005-0.016 0.007-0.025s0.003-0.017 0.002-0.025c0-0.005 0.002-0.007 0.002-0.011s-0.002-0.007-0.002-0.011c0-0.009-0.002-0.016-0.002-0.025s-0.005-0.016-0.007-0.025c-0.003-0.008-0.006-0.016-0.009-0.023-0.002-0.005-0.002-0.007-0.005-0.011l-5.158-8.934 2.551-4.42c0.002-0.005 0.002-0.007 0.005-0.011 0.004-0.007 0.007-0.015 0.009-0.023 0.002-0.009 0.005-0.016 0.007-0.025s0.003-0.017 0.002-0.025c0-0.005 0.002-0.007 0.002-0.011s-0.002-0.007-0.002-0.011c0-0.009-0.002-0.016-0.002-0.025s-0.005-0.016-0.007-0.025c-0.003-0.008-0.006-0.015-0.009-0.023-0.002-0.005-0.002-0.007-0.005-0.011l-7.818-13.55c-0.005-0.007-0.011-0.011-0.016-0.018-0.008-0.010-0.016-0.020-0.025-0.030-0.009-0.008-0.019-0.014-0.030-0.021s-0.021-0.012-0.032-0.016c-0.014-0.004-0.027-0.007-0.041-0.009-0.007 0-0.014-0.005-0.023-0.005h-5.215c-0.005 0-0.007 0.002-0.011 0.002-0.009 0-0.016 0.002-0.025 0.002l-0.027 0.007c-0.007 0.002-0.016 0.007-0.023 0.009s-0.007 0.002-0.011 0.005c-0.003 0.003-0.006 0.005-0.009 0.007-0.007 0.005-0.014 0.010-0.021 0.016s-0.013 0.012-0.018 0.018c-0.005 0.007-0.011 0.014-0.016 0.021-0.003 0.003-0.005 0.006-0.007 0.009l-5.158 8.936h-5.101c-0.005 0-0.007 0.002-0.011 0.002-0.009 0-0.016 0.002-0.025 0.002s-0.018 0.005-0.025 0.007c-0.008 0.003-0.015 0.006-0.023 0.009-0.005 0.002-0.007 0.002-0.011 0.005s-0.005 0.005-0.009 0.007c-0.007 0.005-0.014 0.010-0.021 0.016s-0.013 0.012-0.018 0.018c-0.005 0.007-0.011 0.014-0.016 0.021-0.003 0.003-0.005 0.006-0.007 0.009l-7.821 13.55c-0.003 0.007-0.006 0.015-0.007 0.023-0.005 0.012-0.009 0.024-0.011 0.037s-0.005 0.024-0.005 0.037c-0 0.012 0 0.024 0.002 0.037zM23.542 0.389l7.599 13.162h-4.767l-7.601-13.162h4.77zM26.149 22.582h-4.77l4.991-8.648h4.77l-4.991 8.648zM18.438 0.581l7.599 13.162-4.991 8.648-2.384-4.132 2.553-4.42c0.002-0.005 0.002-0.007 0.005-0.011 0.004-0.007 0.007-0.015 0.009-0.023 0.002-0.009 0.005-0.016 0.007-0.025s0.003-0.017 0.002-0.025c0-0.005 0.002-0.007 0.002-0.011s-0.002-0.007-0.002-0.011c0-0.009-0.002-0.016-0.002-0.025s-0.005-0.016-0.007-0.025c-0.003-0.008-0.006-0.015-0.009-0.023-0.002-0.005-0.002-0.007-0.005-0.011l-2.61-4.516c-0.005-0.007-0.011-0.011-0.016-0.018-0.008-0.010-0.016-0.020-0.025-0.030-0.009-0.008-0.019-0.014-0.030-0.021s-0.021-0.012-0.032-0.016c-0.012-0.004-0.026-0.007-0.039-0.007-0.007 0-0.016-0.005-0.023-0.005h-4.882l4.879-8.454zM13.226 9.42h5.103l2.386 4.13h-9.985l-2.386-4.13h4.882zM8.010 9.612l2.384 4.13-7.599 13.162-2.384-4.13 7.599-13.162zM3.131 27.096l7.599-13.162h9.985l-2.386 4.132h-5.103c-0.005 0-0.007 0.002-0.011 0.002-0.009 0-0.016 0.002-0.025 0.002l-0.027 0.007c-0.007 0.002-0.016 0.007-0.023 0.009s-0.007 0.002-0.011 0.005c-0.003 0.003-0.006 0.005-0.009 0.007-0.007 0.005-0.014 0.010-0.021 0.016s-0.013 0.012-0.018 0.018c-0.005 0.007-0.011 0.014-0.016 0.021-0.002 0.002-0.007 0.005-0.007 0.009l-2.608 4.516c-0.003 0.007-0.006 0.015-0.007 0.023-0.005 0.012-0.009 0.024-0.011 0.037s-0.003 0.024-0.002 0.037c-0 0.012 0 0.024 0.002 0.037s0.006 0.025 0.011 0.037c0.002 0.007 0.005 0.016 0.007 0.023l2.441 4.226h-9.759zM31.365 31.611h-15.198l2.384-4.13h15.198l-2.384 4.13zM15.833 31.419l-4.991-8.646 2.386-4.132 4.991 8.645-2.386 4.132zM33.748 27.096h-15.198l-4.991-8.646h4.77l2.553 4.42 0.007 0.007c0.005 0.008 0.010 0.016 0.016 0.023 0.009 0.010 0.019 0.018 0.030 0.025 0.007 0.005 0.011 0.011 0.018 0.016 0.003 0.002 0.006 0.003 0.009 0.002 0.026 0.015 0.055 0.022 0.085 0.023h5.215c0.030-0 0.060-0.008 0.087-0.023l0.021-0.014c0.019-0.013 0.036-0.029 0.050-0.048 0.002-0.005 0.009-0.007 0.011-0.011l2.441-4.228 4.877 8.454z">
      </path>
    </symbol>
  </defs>
</svg>