<svg aria-hidden="true" style="position: absolute; width: 0; height: 0; overflow: hidden;" version="1.1" xmlns="http://www.w3.org/2000/svg" xmlns:xlink="http://www.w3.org/1999/xlink">
<defs>
<symbol id="icon-tiktok" viewBox="0 0 32 32">
<path d="M25.613 7.76c-0.234-0.118-0.425-0.229-0.609-0.347l0.027 0.016c-0.564-0.366-1.053-0.774-1.49-1.233l-0.003-0.003c-1.114-1.242-1.53-2.502-1.683-3.386h0.006c-0.128-0.733-0.075-1.206-0.067-1.206h-5.072v19.126c0 0.256 0 0.51-0.013 0.762l-0.005 0.093c0 0.014 0 0.029-0.003 0.043v0.010c-0.058 0.724-0.295 1.384-0.666 1.947l0.010-0.016c-0.378 0.581-0.896 1.062-1.51 1.403-0.603 0.339-1.323 0.539-2.090 0.539-0.003 0-0.006 0-0.010 0h0.001c-2.363 0-4.278-1.878-4.278-4.2 0-2.32 1.915-4.198 4.278-4.198 0.448 0 0.893 0.067 1.318 0.203l0.005-5.037c-0.362-0.048-0.781-0.076-1.206-0.076-0.943 0-1.854 0.135-2.715 0.387l0.068-0.017c-1.311 0.379-2.449 0.989-3.425 1.789l0.017-0.013c-0.862 0.733-1.585 1.598-2.146 2.567l-0.025 0.047c-0.214 0.36-1.022 1.806-1.12 4.154-0.062 1.333 0.349 2.714 0.544 3.283v0.013c0.123 0.336 0.6 1.482 1.376 2.448 0.629 0.776 1.368 1.456 2.198 2.022v-0.013l0.013 0.013c2.456 1.627 5.179 1.52 5.179 1.52 0.47-0.018 2.050 0 3.843-0.829 1.989-0.918 3.12-2.288 3.12-2.288 0.696-0.783 1.27-1.694 1.678-2.691l0.023-0.063c0.353-0.933 0.575-2.011 0.612-3.136l0-0.017v-10.149c0.061 0.037 0.88 0.565 0.88 0.565s1.182 0.738 3.024 1.219c1.322 0.341 3.102 0.413 3.102 0.413v-4.91c-0.624 0.067-1.891-0.125-3.187-0.755z"></path>
</symbol>
<symbol id="icon-youtube" viewBox="0 0 48 32">
<path d="M19.821 21.232v-9.618c3.347 1.608 5.939 3.16 9.005 4.832-2.528 1.432-5.658 3.038-9.005 4.789zM38.474 6.829c-0.578-0.776-1.562-1.381-2.61-1.581-3.078-0.597-22.288-0.598-25.366 0-0.874 0.172-1.633 0.579-2.232 1.153l0.002-0.001c-2.707 2.565-1.859 16.317-1.206 18.544 0.274 0.965 0.629 1.661 1.075 2.117 0.576 0.603 1.365 1.019 2.27 1.205 2.534 0.536 15.595 0.835 25.405 0.080 0.92-0.167 1.718-0.601 2.333-1.218l0-0c2.504-2.554 2.334-17.078 0.33-20.299z"></path>
</symbol>
<symbol id="icon-instagram" viewBox="0 0 32 32">
<path d="M16 8.6c-3.062 0-5.689 1.86-6.814 4.512l-0.018 0.048c-0.357 0.836-0.564 1.809-0.564 2.831 0 3.571 2.536 6.55 5.906 7.233l0.047 0.008c0.434 0.090 0.932 0.142 1.442 0.142 2.552 0 4.801-1.292 6.131-3.257l0.017-0.026c0.813-1.216 1.248-2.643 1.248-4.104 0-0.006 0-0.014 0-0.021 0-3.056-1.863-5.678-4.515-6.791l-0.049-0.018c-0.831-0.352-1.798-0.557-2.813-0.557-0.007 0-0.014 0-0.020 0h0.001zM16 20.797c-1.993-0-3.704-1.212-4.436-2.938l-0.012-0.032c-0.233-0.545-0.368-1.179-0.368-1.844 0-2.326 1.652-4.265 3.846-4.71l0.031-0.005c0.282-0.059 0.606-0.092 0.938-0.092 1.663 0 3.129 0.842 3.995 2.123l0.011 0.017c0.509 0.751 0.812 1.677 0.812 2.674 0 2.654-2.152 4.806-4.806 4.806-0.004 0-0.008 0-0.011 0h0.001zM25.432 8.293c0 0.001 0 0.002 0 0.003 0 0.994-0.806 1.8-1.8 1.8-0.126 0-0.248-0.013-0.367-0.037l0.012 0.002c-0.832-0.171-1.448-0.898-1.448-1.768 0-0.621 0.314-1.169 0.793-1.494l0.006-0.004c0.281-0.189 0.627-0.302 1-0.302 0.995 0 1.802 0.805 1.805 1.8v0zM30.318 10.094c0.001-0.059 0.002-0.128 0.002-0.198 0-2.264-0.887-4.32-2.332-5.841l0.003 0.004c-1.526-1.472-3.605-2.379-5.897-2.379-0.051 0-0.102 0-0.153 0.001l0.008-0c-2.344-0.109-9.557-0.109-11.901 0-0.056-0.001-0.121-0.002-0.187-0.002-2.269 0-4.331 0.885-5.859 2.329l0.004-0.004c-1.443 1.518-2.33 3.575-2.33 5.839 0 0.069 0.001 0.139 0.002 0.208l-0-0.010c-0.109 2.341-0.109 9.549 0 11.89-0.002 0.059-0.002 0.129-0.002 0.199 0 2.264 0.887 4.32 2.332 5.841l-0.003-0.004c1.524 1.44 3.586 2.325 5.855 2.325 0.066 0 0.131-0.001 0.196-0.002l-0.010 0c2.379 0.144 9.52 0.144 11.902 0 0.059 0.002 0.13 0.002 0.2 0.002 2.264 0 4.321-0.886 5.844-2.329l-0.004 0.004c1.442-1.517 2.329-3.574 2.329-5.837 0-0.070-0.001-0.14-0.003-0.21l0 0.010c0.109-2.341 0.109-9.549 0-11.89v0.053zM27.253 24.509c-0.506 1.256-1.484 2.233-2.708 2.726l-0.033 0.012c-2.8 0.566-5.662 0.76-8.512 0.576-0.622 0.043-1.347 0.067-2.079 0.067-2.271 0-4.487-0.234-6.625-0.679l0.21 0.037c-1.257-0.505-2.235-1.481-2.729-2.705l-0.012-0.033c-0.757-1.91-0.595-6.414-0.595-8.504s-0.162-6.613 0.595-8.504c0.492-1.27 1.474-2.258 2.708-2.746l0.032-0.011c1.929-0.409 4.145-0.643 6.415-0.643 0.732 0 1.457 0.024 2.177 0.072l-0.098-0.005c2.85-0.184 5.712 0.011 8.512 0.576 1.257 0.505 2.235 1.482 2.729 2.707l0.012 0.033c0.758 1.909 0.576 6.413 0.576 8.504 0 2.090 0.182 6.611-0.576 8.502v0.019z"></path>
</symbol>
<symbol id="icon-facebook" viewBox="0 0 32 32">
<path d="M11.987 8.458v2.624h4.88l-0.528 4.192h-4.352v15.126h-5.776v-15.126h-3.011v-4.192h3.010v-3.17c0-1.568-0.122-2.312 0.57-3.528 0.693-1.216 2.645-2.822 6.021-2.784 3.376 0.040 4.8 0.354 4.8 0.354l-0.731 4.467s-2.157-0.549-3.216-0.352c-1.056 0.194-1.666 0.821-1.666 2.389z"></path>
</symbol>
<symbol id="icon-twitter" viewBox="0 0 35 32">
<path d="M11.070 30.4c13.283 0 20.549-11.082 20.549-20.691 0-0.315 0-0.627-0.022-0.939 1.42-1.042 2.615-2.289 3.57-3.712l0.033-0.053c-1.208 0.554-2.608 0.957-4.078 1.137l-0.069 0.007c1.495-0.914 2.618-2.311 3.161-3.971l0.015-0.052c-1.32 0.802-2.857 1.415-4.494 1.749l-0.093 0.016c-1.317-1.411-3.188-2.291-5.265-2.291-1.921 0-3.665 0.752-4.956 1.979l0.003-0.003c-1.404 1.335-2.277 3.217-2.277 5.303 0 0.584 0.068 1.151 0.198 1.695l-0.010-0.050c-6.025-0.318-11.32-3.197-14.856-7.559l-0.030-0.038c-0.614 1.047-0.977 2.306-0.977 3.65 0 2.509 1.265 4.723 3.192 6.039l0.025 0.016c-1.21-0.037-2.335-0.369-3.315-0.927l0.035 0.018v0.093c0 0.004 0 0.008 0 0.013 0 3.491 2.463 6.407 5.746 7.105l0.048 0.008c-0.568 0.163-1.221 0.256-1.895 0.256-0.482 0-0.954-0.048-1.409-0.139l0.046 0.008c0.94 2.906 3.591 4.983 6.738 5.051l0.008 0c-2.436 1.943-5.56 3.119-8.958 3.119-0.61 0-1.211-0.038-1.8-0.111l0.070 0.007c3.12 2.044 6.942 3.261 11.049 3.261 0.008 0 0.015 0 0.023 0h-0.001z"></path>
</symbol>
</defs>
</svg>
