<svg aria-hidden="true" style="position: absolute; width: 0; height: 0; overflow: hidden;" version="1.1"
  xmlns="http://www.w3.org/2000/svg" xmlns:xlink="http://www.w3.org/1999/xlink">
  <defs>
    <symbol id="icon-kropp-logo" viewBox="0 0 159 32">
      <path
        d="M6.135 31.571h-6.135v-31.141h6.135v31.141zM12.072 15.895l-6.78 7.737-1.116-6.326 4.589-6.677 7.442-10.199h7.491l-11.626 15.466zM8.178 17.306l4.482-4.127 11.345 18.392h-7.252l-8.575-14.265zM37.225 0.429c2.26 0 4.2 0.359 5.821 1.078s2.869 1.773 3.746 3.163c0.876 1.39 1.315 3.114 1.315 5.17 0 1.682-0.267 3.119-0.802 4.311-0.529 1.192-1.276 2.182-2.241 2.97-0.959 0.794-2.092 1.434-3.398 1.919l-1.935 1.13h-9.393v-5.222h6.888c1.047 0 1.927-0.193 2.638-0.578 0.706-0.386 1.235-0.923 1.588-1.612 0.358-0.689 0.538-1.498 0.538-2.427 0-1.443-0.389-2.579-1.166-3.409-0.783-0.835-1.982-1.253-3.597-1.253h-4.829v25.901h-6.11v-31.141h10.939zM35.977 17.665h6.458l6.764 13.608v0.298h-6.541l-6.681-13.906zM113.859 20.6v-5.222h7.425c1.158 0 2.093-0.199 2.803-0.596 0.717-0.403 1.243-0.949 1.58-1.639s0.504-1.484 0.504-2.383c0-0.888-0.169-1.72-0.504-2.497s-0.863-1.402-1.58-1.875c-0.711-0.479-1.646-0.718-2.803-0.718h-5.366v25.901h-6.143v-31.141h11.509c2.316 0 4.3 0.444 5.954 1.332 1.653 0.894 2.919 2.115 3.795 3.663 0.876 1.548 1.314 3.312 1.314 5.292 0 2.009-0.438 3.756-1.314 5.24s-2.142 2.629-3.795 3.435c-1.654 0.806-3.638 1.209-5.954 1.209h-7.425zM140.542 20.6v-5.222h7.433c1.152 0 2.087-0.199 2.803-0.596 0.711-0.403 1.234-0.949 1.571-1.639s0.504-1.484 0.504-2.383c0-0.888-0.168-1.72-0.504-2.497s-0.86-1.402-1.571-1.875c-0.717-0.479-1.651-0.718-2.803-0.718h-5.374v25.901h-6.135v-31.141h11.509c2.31 0 4.295 0.444 5.954 1.332 1.653 0.894 2.919 2.115 3.795 3.663 0.871 1.548 1.306 3.312 1.306 5.292 0 2.009-0.435 3.756-1.306 5.24-0.877 1.484-2.142 2.629-3.795 3.435-1.659 0.806-3.644 1.209-5.954 1.209h-7.433z">
      </path>
      <path
        d="M91.152 0.466c8.033 0 14.545 6.512 14.545 14.545v1.939c0 8.033-6.513 14.545-14.545 14.545h-25.212c-8.033 0-14.545-6.512-14.545-14.545v-1.939c0-8.033 6.512-14.545 14.545-14.545h25.212zM67.991 6.284c-5.356 0-9.697 4.342-9.697 9.697s4.342 9.697 9.697 9.697h22.303c5.355 0 9.697-4.342 9.697-9.697s-4.341-9.697-9.697-9.697h-22.303z">
      </path>
    </symbol>
  </defs>
</svg>